# xmcd CD database file
#
# Track frame offsets:
#	150
#	13620
#	28167
#	43690
#	56957
#	78390
#	94007
#	109572
#	126795
#	141582
#	157707
#	188237
#
# Disc length: 2864 seconds
#
# Revision: 1
# Processed by: cddbd v1.5.2PL0 Copyright (c) Steve Scherf et al.
# Submitted via: CDex 1.51
#
DISCID=9c0b2e0c
DTITLE=Silverstein - Discovering The Waterfront
DYEAR=2005
DGENRE=Rock
TTITLE0=Your Sword Versus My Dagger
TTITLE1=Smile In Your Sleep
TTITLE2=The Ides Of March
TTITLE3=Fist Wrapped In Blood
TTITLE4=Discovering The Waterfront
TTITLE5=Defend You
TTITLE6=My Heroine
TTITLE7=Always And Never
TTITLE8=Already Dead
TTITLE9=Three Hours Back
TTITLE10=Call It Karma
TTITLE11=data
EXTD=YEAR: 2005
EXTT0=
EXTT1=
EXTT2=
EXTT3=
EXTT4=
EXTT5=
EXTT6=
EXTT7=
EXTT8=
EXTT9=
EXTT10=
EXTT11=
PLAYORDER=
